<?xml version="1.0" standalone="no"?>
<!DOCTYPE svg PUBLIC "-//W3C//DTD SVG 20010904//EN"
 "http://www.w3.org/TR/2001/REC-SVG-20010904/DTD/svg10.dtd">
<svg version="1.0" xmlns="http://www.w3.org/2000/svg"
 width="500.000000pt" height="500.000000pt" viewBox="0 0 500.000000 500.000000"
 preserveAspectRatio="xMidYMid meet">

<g transform="translate(0.000000,500.000000) scale(0.100000,-0.100000)"
fill="#000000" stroke="none">
<path d="M2424 4889 c-3 -5 -3 -13 0 -18 3 -4 -54 -11 -127 -14 -81 -4 -161
-13 -207 -26 -145 -37 -290 -101 -327 -144 -18 -20 -17 -20 12 -13 30 6 30 6
-10 -26 -47 -38 -121 -114 -143 -146 -18 -28 -8 -41 18 -24 11 7 22 12 24 12
3 0 -21 -35 -53 -77 -65 -86 -134 -206 -125 -216 4 -3 17 1 30 10 24 15 24 14
-7 -51 -34 -72 -61 -164 -53 -178 3 -5 13 -3 21 4 14 11 15 10 10 -7 -14 -43
-36 -153 -42 -206 -8 -62 6 -84 31 -53 14 18 15 17 9 -12 -8 -42 21 -340 44
-441 l18 -82 -27 -6 c-34 -8 -84 -59 -104 -107 -44 -105 14 -345 122 -508 33
-48 41 -71 47 -127 4 -37 27 -146 51 -242 24 -96 44 -176 44 -178 0 -2 -10 -1
-22 2 -44 11 -101 -132 -177 -444 -39 -158 -61 -317 -61 -434 l0 -92 22 35
c26 41 144 183 185 222 l28 27 105 -45 c58 -24 114 -48 125 -53 31 -15 165
-61 177 -61 6 0 -20 33 -59 72 -77 80 -111 134 -155 241 -30 73 -83 275 -75
283 3 3 19 -21 37 -53 89 -158 234 -296 373 -357 165 -72 341 -87 511 -41 216
57 372 180 495 390 46 79 49 71 22 -47 -43 -182 -110 -314 -218 -428 l-65 -69
81 29 c45 17 138 54 209 83 109 47 130 52 146 41 25 -17 171 -189 199 -234 21
-33 22 -34 25 -11 7 47 -18 285 -43 405 -36 178 -112 433 -147 494 -27 47 -33
53 -55 47 -20 -5 -24 -3 -20 9 21 53 79 297 92 383 13 87 20 109 53 160 88
133 132 272 132 415 0 75 -14 113 -61 164 -19 20 -19 21 1 67 11 25 35 90 52
144 31 95 32 104 32 273 1 172 0 176 -32 269 -33 96 -92 206 -115 214 -6 2
-32 -5 -56 -15 -24 -10 -45 -17 -47 -16 -1 2 15 30 37 63 76 116 87 224 31
314 -67 110 -313 246 -610 337 -205 62 -399 107 -408 93z m-144 -709 c98 -12
186 -50 202 -86 14 -31 20 -30 46 5 67 91 318 113 531 46 69 -22 85 -32 126
-77 53 -59 64 -78 100 -173 24 -65 31 -113 55 -360 15 -160 14 -199 -6 -191
-9 3 -21 6 -27 6 -7 0 -25 21 -42 45 -28 42 -45 56 -45 37 0 -4 11 -23 25 -42
14 -18 22 -36 19 -39 -3 -3 -14 6 -25 21 -40 55 -57 73 -64 66 -4 -4 5 -23 20
-42 42 -55 16 -43 -34 16 -26 29 -47 46 -49 39 -2 -7 11 -28 29 -47 18 -19 28
-34 23 -34 -6 0 -32 22 -57 49 -39 41 -55 51 -94 57 -59 9 -233 -2 -297 -18
-45 -12 -52 -18 -89 -81 -43 -72 -58 -82 -33 -22 18 43 19 45 8 45 -4 0 -18
-20 -30 -45 -21 -44 -22 -45 -71 -45 -50 0 -50 0 -70 46 -11 25 -25 43 -31 39
-6 -4 -5 -16 5 -35 8 -16 15 -35 15 -42 0 -13 -60 82 -72 113 -10 26 -119 44
-267 44 l-134 0 -48 -54 c-27 -30 -52 -51 -56 -48 -4 4 9 23 27 42 18 19 30
38 26 42 -5 5 -29 -16 -55 -45 -49 -55 -81 -74 -37 -21 26 30 33 49 19 49 -5
0 -23 -21 -42 -46 -19 -24 -36 -42 -39 -39 -3 3 5 19 17 36 12 16 21 35 18 42
-2 7 -19 -9 -37 -35 -28 -40 -73 -68 -87 -55 -2 3 5 107 16 233 24 283 51 374
140 482 63 77 167 113 371 131 9 0 54 -4 100 -9z m-546 -895 c-3 -14 -2 -25 3
-25 6 0 15 11 21 25 l12 25 162 0 c191 0 325 -13 365 -34 17 -8 37 -32 48 -55
15 -35 16 -48 7 -96 -7 -31 -20 -76 -31 -100 -18 -42 -23 -45 -98 -68 -120
-38 -235 -50 -354 -37 -123 14 -138 19 -171 62 -53 69 -59 91 -56 200 3 101 3
102 30 109 25 6 27 5 18 -11 -13 -23 -13 -30 0 -30 5 0 16 14 25 30 19 37 28
39 19 5z m1516 -2 l21 -28 -6 29 c-5 26 -4 28 9 17 8 -7 18 -21 21 -32 9 -29
28 -23 21 6 -6 22 -4 24 16 16 22 -8 23 -14 26 -117 l2 -109 -40 -61 c-40 -62
-41 -62 -103 -72 -34 -6 -91 -14 -127 -17 -121 -12 -352 38 -395 84 -8 10 -24
53 -35 96 -16 62 -18 86 -10 111 11 33 42 66 75 79 36 14 148 22 327 24 l176
1 22 -27z m-639 -62 c3 -3 11 -37 18 -74 6 -38 21 -92 32 -122 19 -52 21 -53
90 -79 146 -54 292 -65 468 -35 63 11 68 15 120 79 l20 25 -5 -40 c-13 -119
-36 -383 -36 -400 4 -109 1 -196 -7 -216 -7 -17 -10 -19 -10 -6 -1 9 -6 17
-11 17 -7 0 -9 -20 -4 -59 4 -39 3 -61 -5 -65 -7 -5 -11 9 -11 43 0 31 -4 51
-11 51 -7 0 -10 -25 -9 -72 4 -98 3 -107 -10 -88 -5 8 -10 39 -10 68 0 32 -4
52 -11 52 -8 0 -10 -27 -5 -92 5 -65 4 -88 -3 -78 -6 8 -11 43 -11 78 0 40 -4
62 -12 62 -8 0 -9 -26 -5 -95 4 -52 2 -97 -3 -100 -4 -3 -12 35 -16 85 -3 50
-11 90 -17 90 -8 0 -5 -99 6 -192 1 -9 -2 -18 -8 -20 -6 -2 -11 32 -13 85 -2
54 -7 87 -14 87 -7 0 -9 -35 -7 -107 3 -79 1 -107 -8 -110 -10 -4 -13 19 -13
91 0 57 -4 96 -10 96 -6 0 -11 -45 -11 -112 l-2 -113 -8 105 c-16 219 -11 203
-103 297 -45 46 -87 83 -95 83 -7 0 -15 -9 -18 -20 -7 -25 -9 -25 -47 3 -17
13 -67 45 -111 72 -58 36 -75 51 -60 53 62 10 105 50 105 98 0 9 -22 68 -49
133 -26 64 -54 133 -60 153 -14 42 -28 55 -43 40 -10 -10 11 -76 76 -232 42
-100 43 -111 15 -136 -19 -17 -37 -19 -153 -19 -228 0 -229 1 -146 206 33 84
60 160 60 170 0 22 -13 25 -27 7 -21 -27 -126 -304 -126 -332 0 -36 51 -86 88
-86 14 0 25 -4 25 -10 0 -5 -3 -10 -7 -10 -5 0 -55 -29 -111 -65 -94 -59 -104
-63 -109 -45 -3 11 -10 20 -15 20 -16 0 -136 -110 -164 -151 -24 -36 -27 -48
-31 -171 -7 -171 -22 -202 -23 -45 0 76 -4 116 -10 112 -6 -3 -10 -48 -10
-101 0 -59 -4 -94 -11 -94 -6 0 -10 37 -9 103 1 123 1 128 -10 102 -5 -11 -9
-53 -9 -92 -1 -43 -5 -73 -11 -73 -7 0 -8 38 -4 112 5 83 4 109 -4 104 -7 -4
-12 -34 -13 -69 -1 -69 -11 -117 -21 -101 -4 6 -3 39 2 75 12 81 12 119 1 119
-5 0 -12 -34 -16 -75 -10 -109 -24 -92 -18 22 5 71 3 94 -5 89 -7 -4 -12 -34
-12 -72 0 -46 -3 -63 -11 -58 -8 5 -10 32 -6 85 3 44 2 79 -3 79 -10 0 -20
-36 -20 -74 0 -16 -3 -26 -7 -22 -4 4 -6 35 -5 69 2 55 0 60 -12 44 -13 -16
-15 -13 -21 30 -3 27 -5 91 -4 143 1 52 -6 169 -15 260 -9 91 -16 178 -16 194
0 29 0 29 35 -17 33 -43 38 -46 107 -58 151 -27 334 -12 474 40 41 15 53 25
71 62 12 24 26 71 33 104 23 126 16 114 73 117 65 4 160 -2 168 -11z m-1035
-135 c3 -7 4 -35 2 -62 -3 -46 -4 -47 -15 -24 -13 30 -31 46 -56 51 -16 4 -16
6 -2 27 18 25 63 30 71 8z m1916 -3 c24 -21 23 -33 -2 -33 -13 0 -28 -12 -38
-30 -22 -39 -36 -38 -28 1 3 17 6 42 6 55 0 29 34 33 62 7z m-1948 -95 c8 -24
17 -50 19 -58 2 -8 -9 -30 -24 -48 -16 -18 -29 -40 -29 -49 0 -12 -3 -14 -11
-6 -12 12 -25 163 -16 187 13 32 45 18 61 -26z m1981 23 c6 -19 -10 -180 -19
-188 -2 -3 -12 11 -21 31 -9 19 -23 40 -31 47 -19 15 -17 36 6 87 21 46 54 57
65 23z m-1959 -177 c-3 -26 -6 -72 -7 -103 l-1 -56 -19 40 c-23 49 -24 87 -3
131 23 49 38 43 30 -12z m1914 -25 c8 -30 6 -45 -10 -83 -12 -25 -23 -46 -25
-46 -3 0 -5 46 -5 103 1 92 2 100 16 82 8 -11 19 -36 24 -56z m-868 -371 l25
-103 73 -41 c87 -47 102 -69 44 -61 -22 3 -67 13 -100 23 -60 17 -63 17 -104
-1 -40 -18 -43 -18 -95 -1 -52 18 -54 18 -123 -3 -134 -40 -156 -21 -43 40 77
42 79 44 90 93 6 27 18 73 27 103 l15 53 83 0 82 0 26 -102z m-152 -228 c38
-20 39 -20 82 0 54 24 61 24 138 0 76 -24 108 -25 131 -4 21 19 39 14 102 -26
l47 -30 -1 -137 c0 -87 -4 -131 -9 -118 -5 11 -9 53 -9 93 -1 46 -5 72 -12 72
-8 0 -10 -29 -8 -92 3 -70 1 -92 -9 -96 -11 -3 -13 11 -11 69 4 102 -15 99
-22 -3 -3 -46 -6 -65 -8 -43 -3 48 -18 124 -21 110 -2 -5 -3 -58 -4 -117 -1
-73 -5 -111 -14 -120 -11 -11 -13 -4 -10 37 4 83 -1 175 -11 175 -5 0 -8 -63
-7 -139 1 -105 -2 -143 -12 -153 -12 -11 -13 -1 -11 57 5 108 0 229 -8 221 -5
-4 -8 -75 -8 -156 0 -106 -4 -153 -12 -161 -11 -10 -13 17 -13 139 0 95 -4
152 -10 152 -6 0 -10 -58 -10 -154 0 -93 -4 -157 -10 -161 -6 -4 -10 46 -10
144 0 89 -4 152 -10 156 -7 4 -10 -50 -10 -154 0 -96 -4 -162 -10 -166 -6 -4
-10 47 -10 144 0 94 -4 151 -10 151 -6 0 -10 -58 -10 -155 0 -128 -2 -155 -14
-155 -12 0 -14 17 -9 105 4 76 3 105 -5 105 -8 0 -12 -23 -13 -62 0 -35 -4
-85 -9 -113 -6 -43 -8 -35 -9 53 -1 66 -5 101 -11 97 -6 -3 -10 -48 -10 -100
0 -56 -4 -97 -11 -100 -6 -4 -11 -5 -13 -4 -1 2 1 45 4 94 3 50 3 94 -2 99 -4
6 -8 8 -8 5 -4 -59 -20 -192 -24 -197 -12 -12 -17 8 -23 102 -3 53 -10 96 -16
96 -6 0 -8 -36 -3 -100 3 -55 2 -100 -3 -100 -10 0 -21 82 -21 158 0 32 -4 52
-12 52 -8 0 -9 -27 -4 -100 4 -65 3 -100 -4 -100 -5 0 -10 21 -10 48 0 83 -13
182 -22 176 -5 -4 -6 -49 -2 -110 6 -94 5 -104 -10 -104 -15 0 -17 16 -15 150
0 82 -3 151 -8 152 -4 2 -10 -64 -13 -147 -4 -132 -6 -142 -12 -86 -5 35 -8
111 -8 168 0 76 -3 102 -11 97 -9 -5 -10 -49 -6 -155 3 -82 2 -149 -2 -149
-13 0 -21 82 -21 206 0 78 -4 114 -11 114 -8 0 -10 -42 -7 -145 3 -100 1 -144
-6 -142 -7 2 -12 61 -14 161 -3 196 -22 204 -22 10 0 -88 -4 -133 -10 -129 -6
4 -10 63 -10 146 0 86 -4 139 -10 139 -6 0 -10 -45 -11 -112 0 -73 -3 -106 -9
-93 -5 11 -9 66 -9 123 -1 61 -5 102 -11 102 -6 0 -10 -30 -10 -70 0 -40 -4
-70 -10 -70 -6 0 -10 35 -10 85 0 50 -4 85 -10 85 -6 0 -10 -33 -10 -80 0 -47
-4 -80 -10 -80 -6 0 -10 40 -10 101 0 64 -4 98 -10 94 -5 -3 -10 -44 -10 -91
0 -51 -4 -84 -10 -84 -7 0 -10 46 -8 132 l3 132 59 34 c57 33 60 34 86 18 36
-21 61 -20 135 4 76 24 87 24 135 0z m-440 -192 c0 -62 -3 -108 -8 -103 -7 10
-4 215 4 215 2 0 4 -50 4 -112z m980 2 c0 -67 -4 -110 -10 -110 -6 0 -10 43
-10 110 0 67 4 110 10 110 6 0 10 -43 10 -110z m-1014 29 c-3 -34 -6 -76 -6
-92 0 -18 -4 -27 -8 -21 -12 13 -2 174 10 174 7 0 9 -22 4 -61z m1054 -29 c0
-43 -4 -82 -10 -85 -6 -4 -10 27 -10 85 0 58 4 89 10 85 6 -3 10 -42 10 -85z"/>
<path d="M2380 3420 c0 -5 5 -10 10 -10 6 0 10 5 10 10 0 6 -4 10 -10 10 -5 0
-10 -4 -10 -10z"/>
<path d="M2610 3419 c0 -5 5 -7 10 -4 6 3 10 8 10 11 0 2 -4 4 -10 4 -5 0 -10
-5 -10 -11z"/>
<path d="M1685 3380 c-3 -5 1 -10 9 -10 9 0 16 5 16 10 0 6 -4 10 -9 10 -6 0
-13 -4 -16 -10z"/>
<path d="M3295 3380 c-3 -5 1 -10 9 -10 9 0 16 5 16 10 0 6 -4 10 -9 10 -6 0
-13 -4 -16 -10z"/>
<path d="M1923 3188 c-31 -22 -48 -46 -39 -55 2 -2 15 7 29 21 34 34 53 33 60
-4 8 -39 47 -64 86 -55 43 9 81 42 81 71 0 33 22 31 65 -7 39 -34 60 -33 29 2
-36 40 -68 49 -176 49 -91 0 -107 -3 -135 -22z"/>
<path d="M2792 3180 c-23 -17 -42 -35 -42 -40 0 -16 13 -11 50 20 43 38 57 38
65 0 8 -34 36 -57 83 -66 26 -5 36 -1 62 24 16 17 30 38 30 46 0 23 14 20 48
-9 32 -27 42 -31 42 -15 0 5 -19 23 -42 40 -39 29 -45 30 -148 30 -103 0 -109
-1 -148 -30z"/>
<path d="M2427 2493 c-12 -41 -18 -133 -9 -133 11 0 31 139 21 146 -4 2 -10
-4 -12 -13z"/>
<path d="M2565 2443 c7 -67 25 -112 25 -62 0 53 -13 129 -22 129 -6 0 -7 -27
-3 -67z"/>
<path d="M2466 2483 c-11 -28 -19 -139 -10 -130 12 11 32 137 23 143 -4 2 -10
-4 -13 -13z"/>
<path d="M2524 2455 c11 -82 18 -107 26 -98 10 10 -8 125 -22 138 -7 7 -8 -5
-4 -40z"/>
<path d="M2490 2443 c0 -10 -3 -35 -6 -55 -6 -33 -4 -37 15 -35 23 1 26 19 15
76 -7 33 -24 43 -24 14z"/>
<path d="M2288 2100 c20 -19 32 -39 32 -55 0 -14 5 -25 10 -25 6 0 10 12 10
26 0 14 4 23 10 19 6 -3 10 -17 10 -31 0 -13 5 -24 11 -24 7 0 9 11 6 30 -5
23 -3 30 9 30 12 0 15 -11 13 -55 -1 -30 0 -58 3 -61 4 -3 20 2 37 10 37 20
81 20 126 2 18 -8 36 -12 39 -8 3 3 6 29 6 59 0 33 4 53 11 53 7 0 9 -11 5
-31 -4 -22 -2 -29 7 -26 6 2 15 17 18 33 l7 29 1 -27 c1 -38 21 -36 21 2 0 17
3 30 8 30 13 1 55 40 49 46 -3 4 -18 -3 -34 -13 -25 -18 -44 -20 -204 -19
-154 1 -179 3 -196 19 -11 9 -26 17 -34 17 -8 0 -1 -13 19 -30z"/>
<path d="M1425 1698 c-82 -34 -506 -233 -710 -333 -215 -105 -273 -146 -340
-240 -73 -101 -96 -186 -102 -371 -6 -180 -15 -166 151 -248 187 -92 384 -165
679 -250 471 -136 814 -186 1312 -191 430 -4 702 16 1013 76 250 48 640 157
877 246 136 51 397 176 417 200 20 25 13 261 -12 356 -22 88 -43 132 -99 208
-68 91 -167 148 -631 362 -30 14 -109 51 -175 82 -140 67 -286 127 -292 122
-2 -3 8 -50 22 -105 51 -201 89 -515 71 -586 -7 -30 -24 -34 -33 -8 -19 51
-205 282 -228 282 -7 0 -61 -21 -121 -46 -60 -25 -162 -65 -227 -89 -96 -36
-134 -57 -212 -115 -134 -100 -266 -190 -282 -190 -17 0 -126 72 -263 174 -76
57 -139 95 -185 112 -68 26 -280 110 -359 142 l-39 16 -65 -69 c-72 -77 -162
-201 -162 -222 0 -7 -7 -13 -15 -13 -12 0 -15 20 -15 118 0 136 27 328 69 490
19 73 25 112 17 111 -6 0 -33 -10 -61 -21z"/>
</g>
</svg>
