<?xml version="1.0" encoding="UTF-8"?>
<svg width="206px" height="90px" viewBox="0 0 206 90" version="1.1" xmlns="http://www.w3.org/2000/svg" xmlns:xlink="http://www.w3.org/1999/xlink">
    <title>Objeto Extrusion</title>
    <g id="wordmark" stroke="none" stroke-width="1" fill="none" fill-rule="evenodd">
        <g id="Jost-Refining" transform="translate(-63.000000, -352.000000)" fill-rule="nonzero" stroke="#000000" stroke-width="1.5">
            <g id="Objeto-Extrusion" transform="translate(64.000000, 353.000000)">
                <path d="M61.3179884,5.68434189e-14 L61.3179884,31.1182813 C61.4972832,30.9748677 61.6801695,30.8366617 61.8666472,30.7036632 C62.0606845,30.4368268 62.2624516,30.1778462 62.472,29.928 C63.72,28.44 65.208,27.3 66.936,26.508 C68.664,25.716 70.56,25.32 72.624,25.32 C75.504,25.32 78.168,26.004 80.616,27.372 C83.064,28.74 85.032,30.708 86.52,33.276 C86.8457225,33.838134 87.1357947,34.4261431 87.3902167,35.0400275 L89.015,35.04 L89.016,32.04 L92.5386997,28.5194744 C91.8793655,28.6017527 91.199799,28.6428919 90.5,28.6428919 C87.9791771,28.6428919 85.7014334,28.0937126 83.6667691,26.995354 C81.6321047,25.8969953 80.0295815,24.3664956 78.8591994,22.4038548 C78.2308075,21.3500899 77.771111,20.2158702 77.4801101,19.0011957 L88.8269043,7.00119568 L94.7682643,7.00153624 C94.8719891,7.25163984 94.9888416,7.4940825 95.1188218,7.72886421 C95.7623019,8.89117474 96.4262974,9.85014036 97.4599609,10.6750488 C98.4936244,11.4999573 99.6606835,12.0524473 101.46,12.3216553 C103.259317,12.5908632 104.899056,12.1879908 105.924033,11.6495749 C106.828275,11.1667203 107.563232,10.6792399 108.128906,10.1871338 C108.80603,9.42358398 109.376102,8.64117844 109.881178,7.72886421 C110.011159,7.4940825 110.129796,7.25163984 110.233521,7.00153624 L115.270142,7.00153624 C114.979141,8.21621075 113.374146,11.1307373 111.356445,13.5062256 C109.338745,15.8817139 102.035859,23.1001747 98.6037035,26.0404281 L102.72,26.04 L102.718485,41.611331 C103.092513,41.2668706 103.48358,40.9421753 103.891686,40.6372452 L103.968814,40.5451388 C104.967583,39.4115298 113.793849,30.5181512 114.276,30.036 C115.788,28.524 117.6,27.36 119.712,26.544 C121.824,25.728 124.2,25.32 126.84,25.32 C130.344,25.32 133.32,25.992 135.768,27.336 C136.755925,27.8783904 137.651995,28.5165449 138.45621,29.2504636 L138.456,26.52 L153.031982,11.52 L158.16,11.52 L158.159,26.04 L166.704,26.04 L166.704,30.2875977 L160.704,35.88 L158.159,35.88 L158.159555,42.2972646 C158.619999,41.8472378 159.107989,41.4241836 159.623526,41.0281019 L159.806863,40.8039595 C161.413834,38.9045456 171.072,28.6428919 173.964,27.516 C176.856,26.3891081 179.712,25.32 183.072,25.32 C186.48,25.32 189.528,26.052 192.216,27.516 C194.904,28.98 197.028,31.008 198.588,33.6 C200.148,36.192 200.928,39.192 200.928,42.6 C200.928,45.96 200.148,48.948 198.588,51.564 C197.491355,53.4029886 182.30484,68.5463283 180.216,69.684 C177.528,71.148 174.48,71.88 171.072,71.88 C167.712,71.88 164.676,71.148 161.964,69.684 C159.252,68.22 157.116,66.18 155.556,63.564 C155.283947,63.1077874 155.035615,62.6402611 154.811006,62.1614212 L152.16,65.16 L146.16,71.16 L138.456,71.16 L138.455559,56.3131911 L138.339601,56.4495202 C136.870435,58.1121905 126.310522,68.5544098 124.38,69.612 C121.62,71.124 118.32,71.88 114.48,71.88 C111.072,71.88 108.096,71.16 105.552,69.72 C104.369124,69.0504474 103.310775,68.2563668 102.376955,67.3377582 C102.168325,68.3310957 101.862341,69.2533372 101.46,70.104 C100.6725,71.769 87.0850886,85.4169783 85.788,86.172 C84.18,87.108 82.224,87.576 79.92,87.576 C78.72,87.576 77.652,87.432 76.716,87.144 C75.78,86.856 74.976,86.46 74.304,85.956 C73.7664,85.5528 73.27488,85.12656 72.82944,84.67728 L72.504,84.336 L76.176,78.288 L76.4032853,78.0814249 C77.0907091,77.4326603 79.0149474,75.5015186 82.176,72.288 C82.3798721,72.5938081 82.6074214,72.8657915 82.8586481,73.1039501 L83.015,72.845 L83.0162201,56.1613964 C82.7851054,56.3581946 82.5482377,56.5476576 82.305617,56.7297856 C81.4284735,57.8865235 70.4477525,68.8043736 68.616,69.828 C66.2744348,71.1365217 63.4413071,71.1604764 60.6789307,71.1600858 L41.472,71.16 L41.4725612,56.0498839 L41.2459187,56.2270278 L41.1297924,56.3673867 C39.6565504,58.0713169 29.0214579,68.5830274 27,69.684 C24.312,71.148 21.264,71.88 17.856,71.88 C14.496,71.88 11.46,71.148 8.748,69.684 C6.036,68.22 3.9,66.18 2.34,63.564 C0.78,60.948 -4.54747351e-13,57.96 -4.54747351e-13,54.6 C-4.54747351e-13,51.192 0.78,48.192 2.34,45.6 C3.41984842,43.8057903 18.6104477,28.6698999 20.748,27.516 C23.46,26.052 26.496,25.32 29.856,25.32 C33.264,25.32 36.312,26.052 39,27.516 C39.8853765,27.998214 40.7095636,28.5416174 41.4725612,29.1462104 L41.472,15 L56.0441895,5.68434189e-14 L61.3179884,5.68434189e-14 Z M61.4392827,44.4229376 L61.46375,44.60625 C61.5979167,45.49875 61.826,46.33 62.148,47.1 C62.7,48.42 63.432,49.524 64.344,50.412 C65.256,51.3 66.276,51.972 67.404,52.428 C67.7974727,52.5870634 68.1894854,52.7183844 68.5800378,52.8219628 C68.3967744,51.3620077 67.97655,50.0710461 67.32,48.948 C66.408,47.388 65.208,46.188 63.72,45.348 C62.9991841,44.9410878 62.2389451,44.6327337 61.4392827,44.4229376 Z M20.1108058,44.394462 L20.136,44.58 C20.328,45.844 20.712,46.996 21.288,48.036 C22.152,49.596 23.328,50.82 24.816,51.708 C25.6794182,52.2232657 26.6074818,52.5890388 27.6001908,52.8053195 C27.420351,51.4666319 27.0275937,50.253822 26.424,49.164 C25.56,47.604 24.384,46.38 22.896,45.492 C22.1402545,45.0409906 21.3349816,44.7045136 20.4801811,44.4825689 L20.1108058,44.394462 Z M173.326806,44.394462 L173.352,44.58 C173.544,45.844 173.928,46.996 174.504,48.036 C175.368,49.596 176.544,50.82 178.032,51.708 C178.895418,52.2232657 179.823482,52.5890388 180.816191,52.8053195 C180.636351,51.4666319 180.243594,50.253822 179.64,49.164 C178.776,47.604 177.6,46.38 176.112,45.492 C175.356255,45.0409906 174.550982,44.7045136 173.696181,44.4825689 L173.326806,44.394462 Z" id="Shadow" fill="#000000"></path>
                <g id="objeto" transform="translate(15.000000, 0.000000)" fill="#FFFFFF">
                    <path d="M17.856,56.88 C21.264,56.88 24.312,56.148 27,54.684 C29.688,53.22 31.812,51.18 33.372,48.564 C34.932,45.948 35.712,42.96 35.712,39.6 C35.712,36.192 34.932,33.192 33.372,30.6 C31.812,28.008 29.688,25.98 27,24.516 C24.312,23.052 21.264,22.32 17.856,22.32 C14.496,22.32 11.46,23.052 8.748,24.516 C6.036,25.98 3.9,28.008 2.34,30.6 C0.78,33.192 -2.84217094e-14,36.192 -2.84217094e-14,39.6 C-2.84217094e-14,42.96 0.78,45.948 2.34,48.564 C3.9,51.18 6.036,53.22 8.748,54.684 C11.46,56.148 14.496,56.88 17.856,56.88 Z M17.856,50.04 C15.984,50.04 14.304,49.596 12.816,48.708 C11.328,47.82 10.152,46.596 9.288,45.036 C8.424,43.476 7.992,41.664 7.992,39.6 C7.992,37.536 8.424,35.724 9.288,34.164 C10.152,32.604 11.328,31.38 12.816,30.492 C14.304,29.604 15.984,29.16 17.856,29.16 C19.728,29.16 21.408,29.604 22.896,30.492 C24.384,31.38 25.56,32.604 26.424,34.164 C27.288,35.724 27.72,37.536 27.72,39.6 C27.72,41.664 27.288,43.476 26.424,45.036 C25.56,46.596 24.384,47.82 22.896,48.708 C21.408,49.596 19.728,50.04 17.856,50.04 Z M60.624,56.88 C63.504,56.88 66.168,56.196 68.616,54.828 C71.064,53.46 73.032,51.48 74.52,48.888 C76.008,46.296 76.752,43.2 76.752,39.6 C76.752,35.952 76.008,32.844 74.52,30.276 C73.032,27.708 71.064,25.74 68.616,24.372 C66.168,23.004 63.504,22.32 60.624,22.32 C58.56,22.32 56.664,22.716 54.936,23.508 C53.208,24.3 51.72,25.44 50.472,26.928 C50.088,27.3858462 49.7301302,27.8743669 49.3983905,28.3935621 L49.319,28.522 L49.32,1.42108547e-14 L41.472,1.42108547e-14 L41.472,56.16 L49.32,56.16 L49.319,50.679 L49.3983905,50.8064379 C49.7301302,51.3256331 50.088,51.8141538 50.472,52.272 C51.72,53.76 53.208,54.9 54.936,55.692 C56.664,56.484 58.56,56.88 60.624,56.88 Z M58.752,50.112 C57.648,50.112 56.532,49.884 55.404,49.428 C54.276,48.972 53.256,48.3 52.344,47.412 C51.432,46.524 50.7,45.42 50.148,44.1 C49.596,42.78 49.32,41.28 49.32,39.6 C49.32,37.92 49.596,36.42 50.148,35.1 C50.7,33.78 51.432,32.676 52.344,31.788 C53.256,30.9 54.276,30.228 55.404,29.772 C56.532,29.316 57.648,29.088 58.752,29.088 C60.576,29.088 62.232,29.508 63.72,30.348 C65.208,31.188 66.408,32.388 67.32,33.948 C68.232,35.508 68.688,37.392 68.688,39.6 C68.688,41.808 68.232,43.692 67.32,45.252 C66.408,46.812 65.208,48.012 63.72,48.852 C62.232,49.692 60.576,50.112 58.752,50.112 Z M79.92,72.576 C82.224,72.576 84.18,72.108 85.788,71.172 C87.396,70.236 88.62,68.88 89.46,67.104 C90.3,65.328 90.72,63.24 90.72,60.84 L90.72,23.04 L83.016,23.04 L83.016,59.328 C83.016,60.672 82.896,61.776 82.656,62.64 C82.416,63.504 82.044,64.14 81.54,64.548 C81.036,64.956 80.376,65.16 79.56,65.16 C78.792,65.16 78.132,64.992 77.58,64.656 C77.028,64.32 76.56,63.864 76.176,63.288 L72.504,69.336 C73.032,69.912 73.632,70.452 74.304,70.956 C74.976,71.46 75.78,71.856 76.716,72.144 C77.652,72.432 78.72,72.576 79.92,72.576 Z M114.48,56.88 C118.32,56.88 121.62,56.124 124.38,54.612 C127.14,53.1 129.384,50.856 131.112,47.88 L124.344,45.216 C123.288,46.992 121.968,48.312 120.384,49.176 C118.8,50.04 116.952,50.472 114.84,50.472 C112.824,50.472 111.12,50.028 109.728,49.14 C108.336,48.252 107.28,46.98 106.56,45.324 C106.08,44.22 105.76,42.9613333 105.6,41.548 L105.584,41.4 L131.328,41.4 C131.328,41.208 131.34,40.908 131.364,40.5 C131.388,40.092 131.4,39.672 131.4,39.24 C131.4,35.688 130.74,32.652 129.42,30.132 C128.1,27.612 126.216,25.68 123.768,24.336 C121.32,22.992 118.344,22.32 114.84,22.32 C112.2,22.32 109.824,22.728 107.712,23.544 C105.6,24.36 103.788,25.524 102.276,27.036 C100.764,28.548 99.6,30.372 98.784,32.508 C97.968,34.644 97.56,37.008 97.56,39.6 C97.56,43.056 98.256,46.08 99.648,48.672 C101.04,51.264 103.008,53.28 105.552,54.72 C108.096,56.16 111.072,56.88 114.48,56.88 Z M122.94,36 L105.763,36 L105.822744,35.6941488 C105.90843,35.2871405 106.010182,34.8970909 106.128,34.524 C106.56,33.156 107.172,32.004 107.964,31.068 C108.756,30.132 109.716,29.424 110.844,28.944 C111.972,28.464 113.28,28.224 114.768,28.224 C116.4,28.224 117.828,28.584 119.052,29.304 C120.276,30.024 121.236,31.032 121.932,32.328 C122.467385,33.3249231 122.796852,34.463858 122.920402,35.7448047 L122.94,36 Z M146.16,56.16 L146.159,29.88 L151.704,29.88 L151.704,23.04 L146.159,23.04 L146.16,11.52 L138.456,11.52 L138.455,23.04 L132.912,23.04 L132.912,29.88 L138.455,29.88 L138.456,56.16 L146.16,56.16 Z M171.072,56.88 C174.48,56.88 177.528,56.148 180.216,54.684 C182.904,53.22 185.028,51.18 186.588,48.564 C188.148,45.948 188.928,42.96 188.928,39.6 C188.928,36.192 188.148,33.192 186.588,30.6 C185.028,28.008 182.904,25.98 180.216,24.516 C177.528,23.052 174.48,22.32 171.072,22.32 C167.712,22.32 164.676,23.052 161.964,24.516 C159.252,25.98 157.116,28.008 155.556,30.6 C153.996,33.192 153.216,36.192 153.216,39.6 C153.216,42.96 153.996,45.948 155.556,48.564 C157.116,51.18 159.252,53.22 161.964,54.684 C164.676,56.148 167.712,56.88 171.072,56.88 Z M171.072,50.04 C169.2,50.04 167.52,49.596 166.032,48.708 C164.544,47.82 163.368,46.596 162.504,45.036 C161.64,43.476 161.208,41.664 161.208,39.6 C161.208,37.536 161.64,35.724 162.504,34.164 C163.368,32.604 164.544,31.38 166.032,30.492 C167.52,29.604 169.2,29.16 171.072,29.16 C172.944,29.16 174.624,29.604 176.112,30.492 C177.6,31.38 178.776,32.604 179.64,34.164 C180.504,35.724 180.936,37.536 180.936,39.6 C180.936,41.664 180.504,43.476 179.64,45.036 C178.776,46.596 177.6,47.82 176.112,48.708 C174.624,49.596 172.944,50.04 171.072,50.04 Z"></path>
                    <path d="M100.51989,7.00119568 C100.228889,8.21587018 99.7691928,9.3500899 99.1408008,10.4038548 C97.9704187,12.3664956 96.3768984,13.8969953 94.36024,14.995354 C92.3435815,16.0937126 90.0568349,16.6428919 87.5000001,16.6428919 C84.9791771,16.6428919 82.7014334,16.0937126 80.6667691,14.995354 C78.6321047,13.8969953 77.0295815,12.3664956 75.8591994,10.4038548 C75.2308075,9.3500899 74.771111,8.21587018 74.4801101,7.00119568 L80.7682643,7.00153624 C80.8719891,7.25163984 80.9888416,7.4940825 81.1188218,7.72886421 C81.7623019,8.89117474 82.6381499,9.80314146 83.7463658,10.4647644 C84.8545816,11.1263873 86.1057931,11.4571988 87.5000001,11.4571988 C88.8942072,11.4571988 90.1454186,11.1263873 91.2536344,10.4647644 C92.3618503,9.80314146 93.2376983,8.89117474 93.8811785,7.72886421 C94.0111587,7.4940825 94.1280112,7.25163984 94.231736,7.00153624 L100.51989,7.00119568 Z" id="Path"></path>
                </g>
            </g>
        </g>
    </g>
</svg>